<svg data-name="Layer 1" xmlns="http://www.w3.org/2000/svg" viewBox="0 0 710.42 29"><path d="M527.78 4v-.13l.09-.26v-.26L528 3V1.8l-.06-.13-.12-.25-.07-.13-.14-.22-.23-.07-.09-.1-.18-.2-.22-.19-.33-.23-.13-.07-.13-.11-.13-.1h-50.91l-.54.08-.55.1-.55.12-.55.16-.54.18-.53.06-.51.23-.52.25-.51.26-.48.31-.48.31-.5.34-.45.37-.42.38-.42.4-.38.42-.38.45-.34.44-.34.48-.31.49-.27.49L454.28 25l-.07.11-.06.11v.13l-.05.12-.05.13v1.87l.05.14.05.12.07.12.06.13.14.21.08.11.1.11.18.2.2.17.11.09.11.08.13.08.12.06.12.06.26.12.14.05h.13l.42.09h49.84l.56-.07.56-.09.55-.11.56-.13.54-.17.54-.19.53-.2.53-.25.51-.25.51-.29.48-.31.47-.33.46-.36.44-.37.42-.4.4-.41.38-.43.36-.45.34-.48.31-.48L527.59 4.3zM505.7 9.14v.45l-.06.29-.06.14v.15l-.06.14-.06.12-.07.14-.07.13-.08.12-.08.12-.09.11-.1.12-5.13 8.38-.14.27-.16.28-.17.27-.17.26-.19.25-.21.24-.21.23-.22.23-.24.2-.24.21-.26.18-.25.18-.27.17-.28.15-.27.14-.28.13-.3.12-.28.1-.31.08-.29.08-.31.07-.29.05-.61.06h-15.3l-.3-.06h-.15l-.31-.1-.14-.06-.14-.07-.13-.06-.27-.16-.13-.09-.11-.09-.12-.1-.12-.1-.1-.11-.1-.11-.09-.11-.09-.11-.08-.13-.07-.12-.08-.14-.13-.27-.06-.15-.05-.15v-2.07l.13-.28.06-.13.08-.12 5.92-9.66.18-.26.18-.27.2-.24.21-.24.22-.23.23-.22.25-.2.24-.2.53-.35.28-.16.28-.14.29-.13.3-.12.29-.1L486 6l.29-.07.3-.06h16.86l.14.06.28.14.13.08.14.09.24.17.11.1.22.22.1.1.19.24.08.12.14.25.06.13.07.14.05.14.06.15.08.29v.77zm129.45 16.27v-.19L635 25l-.09-.16-.16-.24-.12-.14-.14-.12-.15-.12-.15-.11-.18-.09-.18-.07h-.19l-.2-.05h-32.52l-.26-.06h-.25l-.14-.05-.12-.05h-.13l-.12-.06-.12-.07-.11-.07-.13-.08-.11-.09-.21-.17-.2-.2-.19-.22-.24-.35-.07-.12-.12-.26-.1-.27-.05-.14-.06-.28v-1.07l.1-.39v-.24l.05-.13.06-.13.06-.11 9.24-14.94.18-.35v-.13l.08-.26V2.12L608 2v-.14l-.05-.13-.12-.25-.07-.13-.15-.21-.13-.14-.09-.11-.18-.2-.21-.16-.34-.24-.13-.07-.12-.06-.14-.06L606 0h-9l-.22.05-.22.07-.2.07-.21.07-.2.09-.21.11-.19.11-.19.11-.36.22-.34.29-.16.17-.16.17-.14.16-.14.19-.24.37-.12.2-14 23.09-.06.12-.13.35v1.14l.09.38.06.12v.12l.06.12.06.11.06.12.07.1.14.2.17.2.1.08.1.09.2.16.34.21.12.05.24.1h50.26l.21-.05.42-.12.22-.08.2-.09.2-.1.2-.09.38-.24.18-.14.18-.13.17-.15.16-.16.15-.16.15-.17.14-.18.24-.37.27-.48.07-.17v-.92zM710 5.89v-.6l-.11-.29-.07-.29-.07-.27-.1-.29-.1-.28-.12-.27-.08-.16-.05-.12-.16-.32-.07-.11-.24-.36-.1-.14-.07-.1-.39-.43-.2-.22-.21-.19-.47-.37-.25-.08-.25-.17-.26-.14-.16-.08-.12-.11h-.06l-.21-.1h-.05l-.24-.09-.29-.16-.22-.06h-48.23l-.43.08-.22-.17-.21.07h-.06l-.13.07-.22.07-.2.09-.19.1-.2.11-.19.13-.37.25-.24.21-.1.08-.06.06-.1.11-.08.08-.07.09-.07.08-.08.08-.14.19-14.54 23.66v.09l-.05.13-.1.25v1.14l.1.38v.24l.06.12v.17l.05.07.14.2.13.15v.1h.05l.2.16.18.11.16.1.12.06.24.09h48.03l.77-.1.77-.12.76-.15.77-.19.63-.19h.11l.54-.18.22-.08h.11l.62-.24.48-.23.25-.11.4-.2.3-.15.71-.4.67-.43.65-.46.63-.49.61-.51.58-.56.29-.3h.67l.52-.59.27-.34.22-.29.48-.65.42-.66 7.11-12 .15-.25.14-.25.12-.26.11-.26.05-.12v-.16l.09-.27.08-.28.07-.29v-.15l.06-.43v-.86zm-15.15 3.29v.45l-.06.29v.29l-.06.13-.06.13-.06.13-.07.13-.08.11v.13l-1.64 2.64-3.68 6-.15.27-.15.27-.15.25v.06l-.13.19-.17.22-.2.23-.21.24-.08.08-.15.14-.23.21-.52.23-.11.07-.15.11-.12.09-.13.09-.27.16-.21.12h-.07l-.27.14-.19.08-.1.05-.29.11-.28.1h-.38l-.22.06-.29.06h-21.48l11-17.77h19.05l.15.06.15.06.2.1h.34l.11.08.14.1.07.06.22.21v.06l.19.24.06.08.14.25.06.13.05.11v.29l.08.29v.77zM462.72 3.84v-.13l.08-.25V1.7l-.05-.13-.13-.26-.07-.13-.15-.18-.08-.11-.09-.11-.18-.19-.22-.19-.33-.26-.13-.07-.13-.07-.13-.06-.26-.1h-9.77l-.43.08-.22.05-.21.07L450 0l-.21.08-.2.09-.2.1-.2.11-.19.11-.37.26-.34.29-.16.16-.15.17-.15.17-.14.19-.24.37-.11.19-.1.21-11.7 18.93-.11.14-.13.14-.14.13-.29.25-.17.12-.17.11-.18.11-.18.1-.2.1-.19.09-.42.16-.21.08-.44.12-.22.05h-.47l-.45.05h-1.96l-.25-.06h-.12l-.34-.14-.21-.11-.1-.06-.09-.06-.18-.13-.14-.13-.07-.08-.07-.08-.06-.07-.06-.08v-.09l-.05-.08-.1-.26v-.77l10.76-16.79.18-.35.05-.13.08-.25V1.57l-.12-.26-.07-.13-.25-.18-.08-.11-.1-.11-.22-.22-.21-.19-.34-.23-.13-.07-.08-.07-.13-.06-.27-.1h-9.77l-.43.08-.22.05-.22.07L426 0l-.21.08-.21.09-.2.1-.19.11-.19.11-.37.26-.33.25-.16.16-.15.17-.14.17-.14.19-.25.37-.11.19-.09.21-11.72 18.98-.11.14-.13.14-.14.13-.29.25-.16.12-.18.11-.17.11-.19.1-.2.1-.19.09-.41.16-.22.07-.44.12-.22.06h-.47l-.45.05h-1.96l-.24-.07h-.13l-.34-.12-.2-.11-.11-.06-.09-.06-.18-.13-.14-.14-.07-.07-.06-.08-.07-.07-.06-.08v-.09l-.05-.08-.09-.26v-.82l10.76-16.76.18-.35v-.13l.08-.25V1.7l-.05-.13-.12-.26-.07-.13-.16-.18-.08-.11-.09-.11-.18-.19-.21-.19-.34-.26-.13-.07-.12-.07-.13-.06-.27-.1h-9.78l-.42.08-.23.05-.21.07L402 0l-.21.08-.21.09-.2.1-.19.11-.2.12-.36.26-.35.29-.16.16-.15.17-.14.17-.15.19-.24.37-.11.19-.09.21-13.7 22.87-.06.12-.12.35v1.14l.09.38.05.12v.13l.06.12.06.1.06.12.07.11.14.2.18.19.09.09.1.09.2.15.34.21.12.06.24.1h23.55l.88-.07.46-.06.44-.06.43-.07.84-.17.42-.11.8-.23.38-.13.38-.14.36-.15.34-.15.34-.16.32-.18.56-.36.28-.19.24-.2.22-.2.06.41.18.37.1.12.08.12.12.12.12.1.12.12.14.1.28.19.34.19.18.09.2.08.4.16.66.2h.24l.48.1h18.89l.56-.06.56-.09.55-.11.56-.14.53-.16.55-.19.53-.21.53-.24.51-.26.5-.28.49-.31.47-.34.45-.35.45-.37.42-.4.4-.41.38-.44.35-.45.35-.47.3-.48 12.1-19.05zM67.18.68a6.14 6.14 0 0 0-3.06-1H22.48a5.16 5.16 0 0 0-4.16 2.12L1.27 27a1.44 1.44 0 0 0 .44 2.05 1.64 1.64 0 0 0 .84.24h12.16a6.2 6.2 0 0 0 5.06-2.8L24.19 20a7.75 7.75 0 0 1 6-3.17h24.08a17.07 17.07 0 0 0 13.59-6.68l.94-1.35A5.71 5.71 0 0 0 67.18.68zM49.62 7.53l-.19.27a8.58 8.58 0 0 1-7.13 3.73H29.9L34.32 5h13.87a1.79 1.79 0 0 1 .93.26 1.62 1.62 0 0 1 .5 2.27zm95.59 16.13a2.31 2.31 0 0 0-1.12-.29h-19.81a1.26 1.26 0 0 1-1.1-.65 1.18 1.18 0 0 1 .54-1.62l30.57-15.28a3.19 3.19 0 0 0 1.45-4.37 3.37 3.37 0 0 0-3-1.76h-49.16A7.43 7.43 0 0 0 97.7 3l-.51.84a1.18 1.18 0 0 0 .5 1.62 1.19 1.19 0 0 0 .58.15h20.58A1.24 1.24 0 0 1 120 6a1.16 1.16 0 0 1-.19 1.67l-33.69 16a2.9 2.9 0 0 0-1.28 4 3.06 3.06 0 0 0 2.52 1.57h52a12 12 0 0 0 5.76-1.63 4 4 0 0 0 1-1 2.18 2.18 0 0 0-.91-2.95zm35.18-15.08a6.52 6.52 0 0 1 5.72-3.3h31.15a12.09 12.09 0 0 0 1.59-.07 5.18 5.18 0 0 0 3.65-2.31 4.16 4.16 0 0 0 .58-1.29 1.59 1.59 0 0 0-1.27-1.89 1.45 1.45 0 0 0-.29 0H174.9a14.22 14.22 0 0 0-12.1 6.73l-10.26 18.48a2.93 2.93 0 0 0 1.27 4 3.14 3.14 0 0 0 1.45.35h51.26a4.85 4.85 0 0 0 3.86-2.28l.26-.48a2 2 0 0 0-1-2.64 1.92 1.92 0 0 0-.58-.16 2.54 2.54 0 0 0-.55 0h-32.79a2.34 2.34 0 0 1-1-.25 2.11 2.11 0 0 1-.91-2.9l.06-.1a6.5 6.5 0 0 1 5.71-3.31h33.9a3.35 3.35 0 0 0 3-2.37 3.64 3.64 0 0 0 .1-1.64 1.7 1.7 0 0 0-1.29-1.23 3 3 0 0 0-.42-.06h-32.58a2.22 2.22 0 0 1-1-.25 2.1 2.1 0 0 1-.91-2.89zm88.47 7.58a14.23 14.23 0 0 0 9.77-6.59 6.21 6.21 0 0 0-1.78-8.8 6.69 6.69 0 0 0-4-1.07H234.4a4.94 4.94 0 0 0-4.69 2.81L218 25.39a2.72 2.72 0 0 0 1.39 3.67 2.89 2.89 0 0 0 1 .25h8.18a5.13 5.13 0 0 0 4.58-2.74l3.58-7a5 5 0 0 1 1.38-1.78 5.38 5.38 0 0 1 7.41.54l5.17 6.28a12.88 12.88 0 0 0 9 4.66h13.11a1.5 1.5 0 0 0 1.53-1.48 1.35 1.35 0 0 0-.19-.71l-6.69-7a2.58 2.58 0 0 1-.49-1 2.51 2.51 0 0 1 1.9-2.92zm-8.29-8.65l-.18.27a8.64 8.64 0 0 1-7.14 3.73h-12.4l3.39-6.6h14.9a1.68 1.68 0 0 1 .93.27 1.62 1.62 0 0 1 .5 2.33zm90.1-7.42a3.21 3.21 0 0 0-1.58-.41h-48.52a12.46 12.46 0 0 0-10.66 6.54l-11.43 18.62a2.9 2.9 0 0 0 1.08 4.05 3.14 3.14 0 0 0 1.56.42h48.24a12.38 12.38 0 0 0 10.56-5.81l11.85-19.32a2.92 2.92 0 0 0-1.1-4.09zm-21.59 11l-5.15 8.38a7 7 0 0 1-5.93 3.91h-14.74a3.56 3.56 0 0 1-1.72-.45 3.21 3.21 0 0 1-1.18-4.47l5.93-9.66a6.79 6.79 0 0 1 5.81-3.19h14.4a3.43 3.43 0 0 1 2.17.78 3.23 3.23 0 0 1 .41 4.66zM371.17-.25L369.85.83l-3 2.4V0c0-.18.08-.33-.12-.33h-1.22c-.07 0-.09.09-.12.14l-.78 1.27q-2.52 4.08-5 8.17h.82a2.15 2.15 0 0 0 .57 0c1.51-2.45 3-4.91 4.53-7.37v3.57l4.32-3.52-4.5 7.34h1.17c.18 0 .2 0 .28-.1l.81-1.32 5-8.16h-1c-.14.01-.32-.04-.44.06zm-9.87 1.46c.1-.16.14-.36.34-.36h1.89c.15 0 .25-.31.32-.42l.45-.73h-5.48c-.14 0-.21.26-.28.36l-.48.79h2.08l-4.9 8c-.09.15-.18.31-.28.46h1.21c.19 0 .17 0 .26-.14.32-.54.65-1.07 1-1.6Q359 5 360.53 2.45zm209.33 15a14.23 14.23 0 0 0 9.77-6.59 6.21 6.21 0 0 0-1.78-8.8 6.76 6.76 0 0 0-4-1.07h-38.45a4.94 4.94 0 0 0-4.69 2.81L519.72 25.4a2.72 2.72 0 0 0 1.39 3.67 2.89 2.89 0 0 0 1 .25h8.18a5.16 5.16 0 0 0 4.59-2.74l3.57-7a5 5 0 0 1 1.38-1.78 5.38 5.38 0 0 1 7.41.54l5.17 6.28a12.88 12.88 0 0 0 9 4.66h13.14a1.5 1.5 0 0 0 1.53-1.48 1.47 1.47 0 0 0-.18-.71l-6.7-7a2.58 2.58 0 0 1-.49-1 2.51 2.51 0 0 1 1.92-2.92zm-8.29-8.65l-.18.27a8.64 8.64 0 0 1-7.16 3.69h-12.37l3.37-6.6h14.9a1.74 1.74 0 0 1 .94.27 1.62 1.62 0 0 1 .5 2.33z" fill="#fd0"/></svg>