<svg width="159" height="201" viewBox="0 0 159 201" fill="none" xmlns="http://www.w3.org/2000/svg">
<path d="M0 121L22.5001 82H67.5013L90 121L67.5013 160H22.5001L0 121Z" fill="#D7DB2A"/>
<path d="M69 80L91.5001 41H136.501L159 80L136.501 119H91.5001L69 80Z" fill="url(#paint0_linear_23_28)"/>
<path fill-rule="evenodd" clip-rule="evenodd" d="M71.309 80L92.6552 117H135.346L156.691 80L135.346 43H92.6552L71.309 80ZM91.5001 41L69 80L91.5001 119H136.501L159 80L136.501 41H91.5001Z" fill="#D7DB2A"/>
<path fill-rule="evenodd" clip-rule="evenodd" d="M71.309 162L92.6552 199H135.346L156.691 162L135.346 125H92.6552L71.309 162ZM91.5001 123L69 162L91.5001 201H136.501L159 162L136.501 123H91.5001Z" fill="#D7DB2A"/>
<path fill-rule="evenodd" clip-rule="evenodd" d="M31.4066 0H22.5001L18.047 7.71875L19.7793 8.7182L23.6552 2H31.4066V0ZM15.7032 11.7812L17.4356 12.7807L8.52928 28.2182L6.79691 27.2188L15.7032 11.7812ZM4.45315 31.2812L6.18552 32.2807L2.30898 39L6.18552 45.7193L4.45315 46.7188L0 39L4.45315 31.2812ZM6.79691 50.7812L8.52928 49.7818L17.4356 65.2193L15.7032 66.2188L6.79691 50.7812ZM58.5948 78V76H66.3462L70.2218 69.2818L71.9542 70.2812L67.5013 78H58.5948ZM74.2978 66.2188L72.5654 65.2194L81.4711 49.7818L83.2035 50.7812L74.2978 66.2188ZM85.5471 46.7188L83.8147 45.7193L87.6911 39L83.8147 32.2806L85.5471 31.2812L90 39L85.5471 46.7188ZM83.2035 27.2188L81.4711 28.2181L72.5654 12.7807L74.2978 11.7813L83.2035 27.2188ZM36.0942 0V2H53.9072V0H36.0942ZM58.5948 0V2H66.3462L70.2218 8.71815L71.9542 7.71875L67.5013 0H58.5948ZM53.9072 78V76H36.0942V78H53.9072ZM31.4066 78V76H23.6552L19.7793 69.2818L18.047 70.2812L22.5001 78H31.4066Z" fill="#D7DB2A"/>
<defs>
<linearGradient id="paint0_linear_23_28" x1="159" y1="100.5" x2="1.16885e-06" y2="100.5" gradientUnits="userSpaceOnUse">
<stop offset="0.28" stop-color="white" stop-opacity="0"/>
<stop offset="0.28" stop-color="#D7DB2A"/>
</linearGradient>
</defs>
</svg>
