<svg width="297" height="318" viewBox="0 0 297 318" fill="none" xmlns="http://www.w3.org/2000/svg">
<path d="M138 239L160.5 200H205.501L228 239L205.501 278H160.5L138 239Z" fill="#D7DB2A"/>
<path d="M230.078 237L208.154 199L230.078 161H273.924L295.846 199L273.924 237H230.078Z" fill="url(#paint0_linear_23_30)" stroke="#D7DB2A" stroke-width="2"/>
<path d="M230.078 317L208.154 279L230.078 241H273.924L295.846 279L273.924 317H230.078Z" stroke="#D7DB2A" stroke-width="2"/>
<path fill-rule="evenodd" clip-rule="evenodd" d="M167.837 120H160.5L156.832 126.359L158.564 127.358L161.655 122H167.837V120ZM152.919 133.141L154.651 134.141L147.314 146.858L145.582 145.859L152.919 133.141ZM141.668 152.641L143.401 153.641L140.309 159L143.401 164.359L141.668 165.359L138 159L141.668 152.641ZM145.582 172.141L147.314 171.142L154.651 183.859L152.919 184.859L145.582 172.141ZM198.164 198V196H204.346L207.437 190.642L209.17 191.641L205.501 198H198.164ZM213.082 184.859L211.35 183.859L218.687 171.142L220.419 172.141L213.082 184.859ZM224.332 165.359L222.599 164.359L225.691 159L222.599 153.641L224.332 152.641L228 159L224.332 165.359ZM220.419 145.859L218.687 146.858L211.35 134.141L213.082 133.141L220.419 145.859ZM175.664 120V122H190.338V120H175.664ZM198.164 120V122H204.346L207.437 127.358L209.17 126.359L205.501 120H198.164ZM190.338 198V196H175.664V198H190.338ZM167.837 198V196H161.655L158.564 190.642L156.832 191.641L160.5 198H167.837Z" fill="#D7DB2A"/>
<path d="M138 79L160.5 40H205.501L228 79L205.501 118H160.5L138 79Z" fill="#D7DB2A"/>
<path d="M230.078 77L208.154 39L230.078 1H273.924L295.846 39L273.924 77H230.078Z" fill="url(#paint1_linear_23_30)" stroke="#D7DB2A" stroke-width="2"/>
<path d="M230.078 157L208.154 119L230.078 81H273.924L295.846 119L273.924 157H230.078Z" stroke="#D7DB2A" stroke-width="2"/>
<path d="M0 239L22.5001 200H67.5013L90 239L67.5013 278H22.5001L0 239Z" fill="#D7DB2A"/>
<path d="M92.0777 237L70.1545 199L92.0777 161H135.924L157.846 199L135.924 237H92.0777Z" fill="url(#paint2_linear_23_30)" stroke="#D7DB2A" stroke-width="2"/>
<path d="M92.0777 317L70.1545 279L92.0777 241H135.924L157.846 279L135.924 317H92.0777Z" stroke="#D7DB2A" stroke-width="2"/>
<defs>
<linearGradient id="paint0_linear_23_30" x1="297" y1="199" x2="207" y2="199" gradientUnits="userSpaceOnUse">
<stop offset="0.5" stop-color="#D7DB2A"/>
<stop offset="0.5" stop-color="white" stop-opacity="0"/>
</linearGradient>
<linearGradient id="paint1_linear_23_30" x1="297" y1="39" x2="207" y2="39" gradientUnits="userSpaceOnUse">
<stop offset="0.5" stop-color="#D7DB2A"/>
<stop offset="0.5" stop-color="white" stop-opacity="0"/>
</linearGradient>
<linearGradient id="paint2_linear_23_30" x1="159" y1="199" x2="69" y2="199" gradientUnits="userSpaceOnUse">
<stop offset="0.5" stop-color="#D7DB2A"/>
<stop offset="0.5" stop-color="white" stop-opacity="0"/>
</linearGradient>
</defs>
</svg>
