<svg width="181" height="35" viewBox="0 0 181 35" fill="none" xmlns="http://www.w3.org/2000/svg">
<g clip-path="url(#clip0_212_22)">
<path d="M51.6182 30.7761L51.6274 35.0009L52.6392 34.4604V32.8253C53.0725 33.1313 53.5483 33.2828 54.0648 33.2828C54.5113 33.2828 54.9198 33.1736 55.2927 32.9523C55.6651 32.7355 55.9616 32.441 56.1811 32.0675C56.4012 31.6923 56.5115 31.2857 56.5115 30.8499C56.5115 30.4124 56.4035 30.0058 56.1857 29.6283C55.9639 29.2548 55.6628 28.9603 55.2836 28.7435C54.9043 28.5245 54.4981 28.4152 54.0648 28.4152C53.6316 28.4152 53.2299 28.5199 52.8547 28.7298C52.4709 28.9443 52.1681 29.2325 51.948 29.5968C51.7279 29.9589 51.6182 30.3518 51.6182 30.7761ZM52.8323 31.5539C52.7047 31.3349 52.6392 31.1004 52.6392 30.8499C52.6392 30.5862 52.7047 30.3495 52.8369 30.1396C52.965 29.9228 53.138 29.7512 53.3575 29.6237C53.5753 29.4939 53.8131 29.4293 54.0648 29.4293C54.3251 29.4293 54.5607 29.4916 54.7785 29.6191C54.994 29.7512 55.1692 29.9251 55.2968 30.1442C55.4272 30.3632 55.4921 30.5977 55.4921 30.8499C55.4921 31.1073 55.4295 31.344 55.3014 31.5585C55.1692 31.7753 54.994 31.9468 54.7739 32.0767C54.5538 32.2042 54.3182 32.2688 54.0648 32.2688C53.7999 32.2688 53.562 32.2042 53.3535 32.0721C53.1357 31.9446 52.9627 31.773 52.8323 31.5539Z" fill="#CB2C30"/>
<path d="M60.5171 28.855C60.0953 29.1433 59.7942 29.5185 59.6149 29.988C59.5052 30.274 59.4512 30.5622 59.4512 30.8499C59.4512 31.3395 59.5971 31.7999 59.8844 32.2242C60.1447 32.6063 60.4544 32.8808 60.8205 33.0461C61.1836 33.2114 61.541 33.292 61.8886 33.292C62.3041 33.292 62.6942 33.1936 63.0626 32.9969C63.4286 32.7984 63.7245 32.5302 63.9469 32.1882L62.9637 31.8107C62.8316 31.9606 62.6695 32.0767 62.4811 32.1573C62.2903 32.2374 62.0926 32.278 61.8886 32.278C61.7094 32.278 61.541 32.2488 61.3836 32.1882C61.1905 32.1167 61.0221 32.0075 60.8785 31.8599C60.7325 31.7124 60.6251 31.5402 60.5533 31.344L64.2905 31.2457V31.2365L64.3083 31.2457C64.3261 31.1181 64.3353 30.9912 64.3353 30.8591C64.3353 30.3678 64.1939 29.9097 63.9112 29.483C63.6527 29.1055 63.3384 28.835 62.9729 28.6697C62.6046 28.5068 62.2501 28.4238 61.9065 28.4238C61.4014 28.4238 60.9394 28.5668 60.5171 28.855ZM60.5441 30.4101L60.5619 30.3541C60.6699 30.0727 60.8475 29.8513 61.094 29.6906C61.341 29.5276 61.6128 29.447 61.9065 29.447C62.0886 29.447 62.257 29.4784 62.4115 29.5368C62.6046 29.61 62.773 29.7152 62.9143 29.8559C63.0557 29.9966 63.1591 30.1596 63.224 30.3455L60.5441 30.4101Z" fill="#CB2C30"/>
<path d="M69.8323 29.4916V28.3884L69.599 28.3701C69.1658 28.3701 68.7618 28.4753 68.3895 28.6829C68.0033 28.8997 67.7022 29.1879 67.4822 29.5499C67.2627 29.9142 67.1523 30.3072 67.1523 30.7315L67.1615 33.3097H68.2165L68.1987 30.8951C68.1987 30.6314 68.2659 30.3947 68.3981 30.1842C68.5239 29.9674 68.6969 29.7959 68.917 29.6683C69.1365 29.5385 69.372 29.4739 69.626 29.4739C69.6553 29.4739 69.7248 29.4807 69.8323 29.4916Z" fill="#CB2C30"/>
<path d="M72.5254 29.0249L72.534 33.2828H73.5913L73.5735 29.8336H74.6641L74.945 28.7927H73.6275C73.7102 28.493 73.8809 28.2477 74.1366 28.0555C74.3928 27.8633 74.6801 27.7673 74.9985 27.7673C75.0301 27.7673 75.0973 27.7735 75.2076 27.785V26.6812L74.9721 26.6635C74.5388 26.6635 74.1349 26.7664 73.7619 26.9763C73.3781 27.1931 73.0753 27.4813 72.8552 27.8433C72.6351 28.2071 72.5254 28.6005 72.5254 29.0249Z" fill="#CB2C30"/>
<path d="M79.2477 32.966C79.6224 33.1845 80.0309 33.292 80.4711 33.292C80.9152 33.292 81.3238 33.1828 81.699 32.9614C82.0713 32.7447 82.3678 32.4496 82.5873 32.0767C82.8074 31.7015 82.9154 31.2949 82.9154 30.8591C82.9154 30.421 82.8074 30.0143 82.5919 29.6369C82.3678 29.264 82.0667 28.9689 81.6898 28.7521C81.3106 28.5336 80.9043 28.4238 80.4711 28.4238C80.0309 28.4238 79.6247 28.5313 79.2523 28.7481C78.8731 28.9689 78.572 29.2663 78.3542 29.6414C78.1342 30.0143 78.0244 30.421 78.0244 30.8591C78.0244 31.3011 78.1342 31.7061 78.3588 32.0721C78.5743 32.4473 78.8708 32.747 79.2477 32.966ZM81.1508 32.0252C80.9445 32.1459 80.7182 32.2059 80.4711 32.2059C80.2286 32.2059 80.0039 32.1459 79.793 32.0252C79.5822 31.9068 79.4161 31.7438 79.2972 31.5362C79.1759 31.3303 79.1156 31.105 79.1156 30.8591C79.1156 30.6131 79.1759 30.3855 79.2972 30.1756C79.4161 29.9657 79.5822 29.8021 79.7884 29.686C79.9976 29.5699 80.224 29.5099 80.4711 29.5099C80.7182 29.5099 80.9446 29.5699 81.1554 29.6906C81.3663 29.809 81.5306 29.9743 81.6473 30.1802C81.7662 30.3855 81.8243 30.6131 81.8243 30.8591C81.8243 31.0981 81.7639 31.3217 81.6427 31.5316C81.5237 31.7415 81.36 31.9068 81.1508 32.0252Z" fill="#CB2C30"/>
<path d="M88.4143 29.4916V28.3884L88.1787 28.3701C87.7455 28.3701 87.3438 28.4753 86.9709 28.6829C86.5854 28.8997 86.282 29.1879 86.0619 29.5499C85.8441 29.9142 85.7344 30.3072 85.7344 30.7315L85.7436 33.3097H86.7985L86.7801 30.8951C86.7801 30.6314 86.848 30.3947 86.9801 30.1842C87.106 29.9674 87.2789 29.7959 87.4984 29.6683C87.7185 29.5385 87.9541 29.4739 88.208 29.4739C88.2368 29.4739 88.3069 29.4807 88.4143 29.4916Z" fill="#CB2C30"/>
<path d="M91.3193 30.5708V33.292H92.3295V30.5708C92.3295 30.1687 92.3921 29.8828 92.5157 29.7084C92.6392 29.5345 92.8455 29.447 93.1328 29.447C93.2718 29.447 93.4316 29.4893 93.6109 29.5745C93.7861 29.6637 93.9275 29.7959 94.0309 29.9674C94.136 30.1419 94.1901 30.3432 94.1901 30.5708V33.292H95.2002L95.218 30.5708C95.218 30.3186 95.1778 30.0727 95.0922 29.8336C95.2853 29.606 95.5145 29.4916 95.7794 29.4916C95.988 29.4916 96.1765 29.5591 96.3379 29.6906C96.4994 29.8227 96.5827 29.988 96.5827 30.1842V33.2828H97.7635V30.1487C97.7635 29.8182 97.667 29.5231 97.4762 29.2594C97.2895 29.0072 97.0516 28.8059 96.7666 28.656C96.4816 28.5067 96.2081 28.433 95.9495 28.433C95.6846 28.433 95.4335 28.4844 95.1956 28.5891C94.9577 28.6943 94.7532 28.8419 94.5785 29.0341C94.3739 28.8419 94.1452 28.6943 93.8913 28.5891C93.6402 28.4844 93.3862 28.433 93.1328 28.433C92.5628 28.433 92.1157 28.6206 91.7974 28.998C91.4785 29.3755 91.3193 29.9005 91.3193 30.5708Z" fill="#CB2C30"/>
<path d="M104.469 30.1442C104.6 30.3632 104.665 30.5977 104.665 30.8499C104.665 31.1073 104.602 31.344 104.474 31.5585C104.342 31.7753 104.166 31.9468 103.946 32.0767C103.727 32.2042 103.491 32.2688 103.237 32.2688C102.972 32.2688 102.737 32.2042 102.526 32.0721C102.308 31.9446 102.135 31.773 102.005 31.5539C101.877 31.3349 101.812 31.1004 101.812 30.8499C101.812 30.5862 101.88 30.3495 102.012 30.1396C102.138 29.9228 102.31 29.7512 102.531 29.6237C102.75 29.4939 102.986 29.4293 103.237 29.4293C103.498 29.4293 103.736 29.4916 103.951 29.6191C104.169 29.7512 104.342 29.9251 104.469 30.1442ZM104.665 32.8253V33.256H105.675L105.684 30.7761C105.684 30.3518 105.574 29.9566 105.35 29.5923C105.127 29.2325 104.829 28.9466 104.451 28.7344C104.077 28.5199 103.671 28.4152 103.237 28.4152C102.799 28.4152 102.393 28.5222 102.021 28.7389C101.642 28.9603 101.341 29.2571 101.12 29.6323C100.903 30.0058 100.793 30.4124 100.793 30.8499C100.793 31.2926 100.903 31.6969 101.125 32.0629C101.343 32.4387 101.639 32.7378 102.016 32.9569C102.391 33.1759 102.799 33.2828 103.237 33.2828C103.756 33.2828 104.231 33.1313 104.665 32.8253Z" fill="#CB2C30"/>
<path d="M112.099 30.5708V33.292H113.109L113.127 30.5708C113.127 30.151 113.021 29.7736 112.811 29.4384C112.595 29.121 112.315 28.8751 111.971 28.6966C111.63 28.5199 111.26 28.433 110.863 28.433C110.477 28.433 110.111 28.5199 109.761 28.6921C109.405 28.8728 109.125 29.1256 108.917 29.4516C108.71 29.7776 108.604 30.151 108.604 30.5708V33.292H109.617V30.5708C109.617 30.2225 109.736 29.9497 109.978 29.749C110.218 29.5476 110.512 29.447 110.863 29.447C111.206 29.447 111.498 29.5476 111.738 29.749C111.978 29.9497 112.099 30.2225 112.099 30.5708Z" fill="#CB2C30"/>
<path d="M116.375 29.6414C116.155 30.0143 116.045 30.421 116.045 30.8591C116.045 31.3011 116.157 31.7061 116.379 32.0721C116.595 32.4473 116.891 32.747 117.268 32.966C117.645 33.1845 118.051 33.292 118.492 33.292C118.882 33.292 119.243 33.2091 119.574 33.0415C119.913 32.8739 120.195 32.644 120.422 32.3489C120.651 32.0567 120.806 31.7261 120.884 31.3618H119.827C119.724 31.63 119.551 31.8508 119.309 32.0206C119.064 32.1928 118.792 32.278 118.492 32.278C118.227 32.278 117.989 32.2128 117.778 32.0812C117.562 31.9537 117.389 31.7816 117.259 31.5631C117.129 31.344 117.064 31.1096 117.064 30.8591C117.064 30.5954 117.131 30.3586 117.264 30.1487C117.389 29.932 117.562 29.7598 117.782 29.6323C118.002 29.503 118.238 29.4384 118.492 29.4384C118.792 29.4384 119.064 29.5231 119.304 29.6906C119.544 29.8582 119.715 30.0772 119.818 30.3455L120.884 30.3541C120.806 29.9966 120.651 29.666 120.422 29.3669C120.188 29.0741 119.903 28.8419 119.564 28.6743C119.228 28.5068 118.871 28.4238 118.492 28.4238C118.051 28.4238 117.645 28.5313 117.273 28.7481C116.894 28.9689 116.595 29.2663 116.375 29.6414Z" fill="#CB2C30"/>
<path d="M124.887 28.855C124.464 29.1433 124.164 29.5185 123.984 29.988C123.877 30.274 123.82 30.5622 123.82 30.8499C123.82 31.3395 123.966 31.7999 124.254 32.2242C124.514 32.6063 124.826 32.8808 125.19 33.0461C125.553 33.2114 125.91 33.292 126.258 33.292C126.673 33.292 127.066 33.1936 127.432 32.9969C127.8 32.7984 128.094 32.5302 128.316 32.1882L127.333 31.8107C127.201 31.9606 127.039 32.0767 126.851 32.1573C126.66 32.2374 126.462 32.278 126.258 32.278C126.078 32.278 125.91 32.2488 125.753 32.1882C125.56 32.1167 125.392 32.0075 125.248 31.8599C125.105 31.7124 124.994 31.5402 124.922 31.344L128.66 31.2457V31.2365L128.677 31.2457C128.696 31.1181 128.704 30.9912 128.704 30.8591C128.704 30.3678 128.563 29.9097 128.28 29.483C128.022 29.1055 127.708 28.835 127.342 28.6697C126.974 28.5068 126.619 28.4238 126.276 28.4238C125.771 28.4238 125.309 28.5668 124.887 28.855ZM124.914 30.4101L124.932 30.3541C125.039 30.0727 125.217 29.8513 125.464 29.6906C125.71 29.5276 125.982 29.447 126.276 29.447C126.458 29.447 126.626 29.4784 126.784 29.5368C126.974 29.61 127.143 29.7152 127.284 29.8559C127.425 29.9966 127.528 30.1596 127.594 30.3455L124.914 30.4101Z" fill="#CB2C30"/>
<path d="M135.97 29.6414C135.75 30.0143 135.642 30.421 135.642 30.8591C135.642 31.3011 135.752 31.7061 135.974 32.0721C136.192 32.4473 136.488 32.747 136.863 32.966C137.24 33.1845 137.649 33.292 138.086 33.292C138.479 33.292 138.838 33.2091 139.17 33.0415C139.507 32.8739 139.79 32.644 140.019 32.3489C140.248 32.0567 140.4 31.7261 140.479 31.3618H139.424C139.321 31.63 139.148 31.8508 138.903 32.0206C138.661 32.1928 138.387 32.278 138.086 32.278C137.821 32.278 137.583 32.2128 137.375 32.0812C137.157 31.9537 136.984 31.7816 136.854 31.5631C136.726 31.344 136.661 31.1096 136.661 30.8591C136.661 30.5954 136.726 30.3586 136.859 30.1487C136.986 29.932 137.159 29.7598 137.379 29.6323C137.599 29.503 137.835 29.4384 138.086 29.4384C138.387 29.4384 138.658 29.5231 138.898 29.6906C139.141 29.8582 139.312 30.0772 139.415 30.3455L140.479 30.3541C140.4 29.9966 140.248 29.666 140.019 29.3669C139.783 29.0741 139.498 28.8419 139.162 28.6743C138.825 28.5068 138.466 28.4238 138.086 28.4238C137.649 28.4238 137.242 28.5313 136.867 28.7481C136.49 28.9689 136.19 29.2663 135.97 29.6414Z" fill="#CB2C30"/>
<path d="M144.482 28.855C144.062 29.1433 143.761 29.5185 143.579 29.988C143.472 30.274 143.418 30.5622 143.418 30.8499C143.418 31.3395 143.562 31.7999 143.851 32.2242C144.109 32.6063 144.421 32.8808 144.785 33.0461C145.148 33.2114 145.506 33.292 145.855 33.292C146.271 33.292 146.661 33.1936 147.029 32.9969C147.395 32.7984 147.689 32.5302 147.914 32.1882L146.928 31.8107C146.796 31.9606 146.636 32.0767 146.446 32.1573C146.257 32.2374 146.059 32.278 145.855 32.278C145.674 32.278 145.506 32.2488 145.35 32.1882C145.157 32.1167 144.989 32.0075 144.843 31.8599C144.699 31.7124 144.592 31.5402 144.52 31.344L148.255 31.2457V31.2365L148.273 31.2457C148.293 31.1181 148.302 30.9912 148.302 30.8591C148.302 30.3678 148.161 29.9097 147.877 29.483C147.617 29.1055 147.305 28.835 146.937 28.6697C146.571 28.5068 146.217 28.4238 145.873 28.4238C145.368 28.4238 144.904 28.5668 144.482 28.855ZM144.511 30.4101L144.529 30.3541C144.637 30.0727 144.814 29.8513 145.061 29.6906C145.308 29.5276 145.577 29.447 145.873 29.447C146.053 29.447 146.221 29.4784 146.378 29.5368C146.571 29.61 146.737 29.7152 146.879 29.8559C147.02 29.9966 147.124 30.1596 147.191 30.3455L144.511 30.4101Z" fill="#CB2C30"/>
<path d="M154.714 30.5708V33.292H155.724L155.742 30.5708C155.742 30.151 155.636 29.7736 155.428 29.4384C155.21 29.121 154.93 28.8751 154.588 28.6966C154.245 28.5199 153.875 28.433 153.478 28.433C153.091 28.433 152.725 28.5199 152.375 28.6921C152.02 28.8728 151.74 29.1256 151.531 29.4516C151.325 29.7776 151.222 30.151 151.222 30.5708V33.292H152.232V30.5708C152.232 30.2225 152.353 29.9497 152.593 29.749C152.833 29.5476 153.127 29.447 153.478 29.447C153.821 29.447 154.113 29.5476 154.353 29.749C154.593 29.9497 154.714 30.2225 154.714 30.5708Z" fill="#CB2C30"/>
<path d="M158.717 26.7172V33.2743H159.899V29.2239H160.703L160.984 28.1802H159.899V26.7172H158.717Z" fill="#CB2C30"/>
<path d="M164.842 28.855C164.42 29.1433 164.119 29.5185 163.94 29.988C163.829 30.274 163.775 30.5622 163.775 30.8499C163.775 31.3395 163.921 31.7999 164.209 32.2242C164.469 32.6063 164.779 32.8808 165.145 33.0461C165.508 33.2114 165.865 33.292 166.213 33.292C166.628 33.292 167.019 33.1936 167.387 32.9969C167.753 32.7984 168.049 32.5302 168.272 32.1882L167.289 31.8107C167.156 31.9606 166.994 32.0767 166.804 32.1573C166.615 32.2374 166.417 32.278 166.213 32.278C166.034 32.278 165.865 32.2488 165.708 32.1882C165.515 32.1167 165.347 32.0075 165.203 31.8599C165.057 31.7124 164.949 31.5402 164.877 31.344L168.615 31.2457V31.2365L168.633 31.2457C168.651 31.1181 168.66 30.9912 168.66 30.8591C168.66 30.3678 168.518 29.9097 168.235 29.483C167.977 29.1055 167.663 28.835 167.297 28.6697C166.929 28.5068 166.575 28.4238 166.231 28.4238C165.726 28.4238 165.261 28.5668 164.842 28.855ZM164.869 30.4101L164.887 30.3541C164.995 30.0727 165.172 29.8513 165.419 29.6906C165.665 29.5276 165.937 29.447 166.231 29.447C166.413 29.447 166.581 29.4784 166.736 29.5368C166.929 29.61 167.098 29.7152 167.239 29.8559C167.38 29.9966 167.484 30.1596 167.549 30.3455L164.869 30.4101Z" fill="#CB2C30"/>
<path d="M174.157 29.4916V28.3884L173.923 28.3701C173.49 28.3701 173.086 28.4753 172.713 28.6829C172.327 28.8997 172.026 29.1879 171.806 29.5499C171.586 29.9142 171.477 30.3072 171.477 30.7315L171.485 33.3097H172.54L172.522 30.8951C172.522 30.6314 172.59 30.3947 172.722 30.1842C172.848 29.9674 173.021 29.7959 173.241 29.6683C173.461 29.5385 173.696 29.4739 173.95 29.4739C173.979 29.4739 174.048 29.4807 174.157 29.4916Z" fill="#CB2C30"/>
<path d="M61.9409 8.8556V4.59995L61.0365 4.53074C59.3684 4.53074 57.8176 4.93509 56.3811 5.7415C54.8974 6.5725 53.7327 7.68545 52.8886 9.07922C52.0422 10.4753 51.6182 11.9903 51.6182 13.6277L51.6544 23.5562H55.7191L55.6496 14.2511C55.6496 13.2371 55.9053 12.3254 56.415 11.519C56.9016 10.688 57.5688 10.024 58.4123 9.53046C59.2587 9.03461 60.1677 8.7864 61.1416 8.7864C61.256 8.7864 61.5232 8.8087 61.9409 8.8556Z" fill="#F8F8F8"/>
<path d="M77.1448 11.3623C77.643 12.2048 77.8901 13.1095 77.8901 14.0789C77.8901 15.0689 77.6476 15.98 77.1604 16.8116C76.6507 17.6403 75.9732 18.3037 75.1291 18.7996C74.2827 19.2954 73.3737 19.5436 72.3998 19.5436C71.381 19.5436 70.4651 19.2891 69.6549 18.7818C68.82 18.2968 68.1552 17.6357 67.657 16.7933C67.1588 15.9514 66.9094 15.0466 66.9094 14.0789C66.9094 13.0626 67.1634 12.1533 67.6748 11.3446C68.1598 10.5159 68.8263 9.85246 69.6727 9.35603C70.5191 8.86017 71.4281 8.61253 72.3998 8.61253C73.3961 8.61253 74.312 8.8556 75.1446 9.3383C75.9795 9.84559 76.6467 10.5205 77.1448 11.3623ZM77.8901 21.6883V23.348H81.7842L81.8181 13.8021C81.8181 12.1647 81.3894 10.6428 80.5315 9.23535C79.6742 7.85245 78.5227 6.75151 77.0753 5.93138C75.6273 5.11353 74.0673 4.70518 72.3998 4.70518C70.7099 4.70518 69.1452 5.11811 67.7087 5.94911C66.2498 6.80298 65.096 7.94854 64.2496 9.39206C63.4061 10.8327 62.9814 12.3946 62.9814 14.0789C62.9814 15.7838 63.4101 17.3406 64.268 18.7481C65.1029 20.2002 66.2429 21.3463 67.6909 22.1888C69.1383 23.0312 70.7099 23.451 72.3998 23.451C74.3931 23.451 76.222 22.8636 77.8901 21.6883Z" fill="#F8F8F8"/>
<path d="M84.1295 9.42523C83.2831 10.8665 82.8613 12.4278 82.8613 14.1127C82.8613 15.8193 83.2877 17.3766 84.145 18.7818C84.9805 20.2339 86.1205 21.3824 87.5679 22.2242C89.0182 23.0644 90.5869 23.4864 92.2773 23.4864C93.7834 23.4864 95.1751 23.1627 96.4478 22.517C97.7447 21.8713 98.8336 20.9843 99.7156 19.8542C100.595 18.7235 101.186 17.4567 101.487 16.0492H97.4218C97.0264 17.0884 96.3622 17.9348 95.4239 18.592C94.4861 19.2485 93.4352 19.5768 92.2773 19.5768C91.258 19.5768 90.3427 19.3246 89.5319 18.8173C88.6993 18.3329 88.0328 17.6694 87.5346 16.827C87.0364 15.9869 86.787 15.0821 86.787 14.1127C86.787 13.0981 87.0427 12.187 87.5524 11.3801C88.0374 10.5491 88.7039 9.88791 89.5503 9.39206C90.3961 8.89621 91.3051 8.64799 92.2773 8.64799C93.4352 8.64799 94.4792 8.96998 95.4061 9.61511C96.3329 10.2608 96.9931 11.1032 97.3856 12.1401L101.487 12.1756C101.186 10.7927 100.595 9.5236 99.7156 8.37118C98.8112 7.2405 97.7114 6.35345 96.4139 5.70775C95.1165 5.06263 93.7386 4.73835 92.2773 4.73835C90.5869 4.73835 89.0228 5.15414 87.5863 5.98514C86.1274 6.83615 84.9736 7.98457 84.1295 9.42523Z" fill="#F8F8F8"/>
<path d="M106.632 6.39863C105.009 7.50644 103.851 8.95855 103.155 10.7572C102.74 11.865 102.531 12.9711 102.531 14.0789C102.531 15.9691 103.087 17.7341 104.199 19.3692C105.195 20.8459 106.394 21.9005 107.795 22.5348C109.197 23.1696 110.569 23.4864 111.913 23.4864C113.511 23.4864 115.017 23.1067 116.431 22.3449C117.846 21.5831 118.979 20.5468 119.837 19.2308L116.05 17.7787C115.54 18.3552 114.919 18.7996 114.189 19.1101C113.46 19.423 112.701 19.5768 111.913 19.5768C111.218 19.5768 110.569 19.463 109.967 19.2308C109.227 18.9563 108.578 18.5336 108.021 17.9686C107.464 17.4035 107.049 16.7418 106.771 15.98L121.158 15.6002V15.5648L121.228 15.6002C121.298 15.1158 121.331 14.6194 121.331 14.1127C121.331 12.2225 120.786 10.4575 119.697 8.82014C118.701 7.36804 117.497 6.32486 116.083 5.69003C114.669 5.05577 113.303 4.73835 111.983 4.73835C110.037 4.73835 108.253 5.29254 106.632 6.39863ZM106.735 12.3832L106.805 12.1756C107.222 11.0924 107.904 10.2385 108.856 9.61511C109.806 8.99458 110.847 8.68174 111.983 8.68174C112.679 8.68174 113.327 8.79784 113.928 9.02775C114.669 9.30513 115.314 9.71348 115.857 10.2568C116.402 10.7973 116.802 11.4252 117.058 12.1401L106.735 12.3832Z" fill="#F8F8F8"/>
<path d="M122.409 0L122.373 14.5279C122.373 16.1882 122.802 17.698 123.659 19.0586C124.516 20.4661 125.67 21.5785 127.118 22.3964C128.566 23.2165 130.123 23.6254 131.791 23.6254C133.506 23.6254 135.082 23.1982 136.518 22.3449C137.955 21.5139 139.095 20.3792 139.941 18.938C140.787 17.4973 141.209 15.9331 141.209 14.2511C141.209 12.5668 140.791 11.0003 139.959 9.54591C139.101 8.11611 137.943 6.98142 136.484 6.13898C135.023 5.29712 133.459 4.87676 131.791 4.87676C129.753 4.87676 127.924 5.47556 126.301 6.67544V2.0755L122.409 0ZM127.275 16.8625C126.81 16.0675 126.579 15.1959 126.579 14.2511C126.579 13.3063 126.81 12.4278 127.275 11.6214C127.738 10.815 128.368 10.1807 129.167 9.72034C129.966 9.25823 130.842 9.02775 131.791 9.02775C132.743 9.02775 133.623 9.25823 134.433 9.72034C135.243 10.203 135.881 10.8442 136.345 11.6397C136.808 12.4347 137.039 13.3063 137.039 14.2511C137.039 15.1736 136.808 16.0383 136.345 16.8447C135.858 17.6511 135.214 18.286 134.415 18.7481C133.616 19.2085 132.743 19.4384 131.791 19.4384C130.864 19.4384 129.995 19.2085 129.185 18.7481C128.375 18.286 127.738 17.658 127.275 16.8625Z" fill="#F8F8F8"/>
<path d="M146.961 22.2242C148.409 23.0644 149.978 23.4864 151.668 23.4864C153.383 23.4864 154.959 23.0598 156.395 22.2065C157.832 21.3755 158.972 20.2408 159.818 18.7996C160.664 17.3589 161.086 15.7947 161.086 14.1127C161.086 12.4278 160.671 10.8619 159.836 9.4075C158.979 7.9777 157.82 6.84301 156.361 6.00058C154.9 5.16043 153.338 4.73835 151.668 4.73835C149.978 4.73835 148.413 5.15414 146.977 5.98514C145.518 6.83615 144.366 7.98457 143.52 9.42523C142.674 10.8665 142.252 12.4278 142.252 14.1127C142.252 15.8193 142.681 17.3766 143.538 18.7818C144.371 20.2339 145.511 21.3824 146.961 22.2242ZM154.292 18.6097C153.493 19.0701 152.62 19.3 151.668 19.3C150.743 19.3 149.875 19.0701 149.062 18.6097C148.252 18.147 147.614 17.5196 147.152 16.7241C146.687 15.9291 146.456 15.0575 146.456 14.1127C146.456 13.1673 146.687 12.2917 147.152 11.483C147.614 10.6766 148.245 10.0486 149.047 9.59738C149.845 9.14842 150.719 8.9248 151.668 8.9248C152.62 8.9248 153.5 9.15529 154.31 9.61511C155.12 10.0778 155.753 10.7058 156.204 11.5007C156.656 12.2963 156.882 13.1673 156.882 14.1127C156.882 15.0352 156.651 15.8999 156.186 16.7063C155.724 17.5127 155.093 18.147 154.292 18.6097Z" fill="#F8F8F8"/>
<path d="M174.154 13.8353L180.095 4.87676H174.883L171.442 10.6183L168.107 4.87676H162.721L168.733 14.1459L162.13 23.2788H167.412L171.442 17.3297L175.579 23.2788H181L174.154 13.8353Z" fill="#F8F8F8"/>
<path d="M30.2925 32.405H24.0638L16.7014 22.0097H10.0935V32.405H4.87263V17.3743H17.8328C19.7635 17.3743 21.2735 16.9162 22.3647 15.996C23.4553 15.1204 24.0012 13.9091 24.0012 12.3655C24.0012 10.6943 23.4553 9.44353 22.3647 8.60796C21.2735 7.77238 19.7428 7.35431 17.7702 7.35431H4.87263V2.59594H18.212C19.8462 2.59594 21.3994 2.82414 22.8675 3.28396C24.2925 3.74436 25.4687 4.37004 26.3915 5.16272C27.3563 5.99829 28.0906 6.97913 28.5934 8.10524C29.0962 9.27596 29.3473 10.5897 29.3473 12.0503C29.3473 13.304 29.1588 14.4318 28.7819 15.4327C28.4877 16.3512 28.005 17.2068 27.3339 18.0023C26.7484 18.7103 25.9916 19.3583 25.0694 19.9434C24.2299 20.4015 23.2645 20.799 22.1762 21.1318L30.2925 32.405ZM0 0.42894C0 0.419789 0.00229841 0.413498 0.00229841 0.406635C0.00229841 0.397484 0.00459683 0.391193 0.00459683 0.38433C0.00689524 0.377467 0.00689524 0.368888 0.00919365 0.362025C0.0114921 0.355162 0.0114921 0.348299 0.0132159 0.342008C0.0155143 0.332857 0.0178127 0.325994 0.0201111 0.319703C0.0224095 0.31284 0.0247079 0.305977 0.0270063 0.299114C0.0293048 0.292823 0.0316032 0.283672 0.0339016 0.276809C0.0379238 0.270518 0.0402222 0.263655 0.0425206 0.256792C0.0471175 0.250501 0.0494159 0.243638 0.0540127 0.239062C0.0563111 0.232199 0.0603333 0.225908 0.0649302 0.219045C0.0672286 0.212182 0.0718254 0.205319 0.0764222 0.201316C0.0810191 0.194453 0.0850413 0.18759 0.0896381 0.180727C0.0942349 0.176723 0.0988318 0.16986 0.103429 0.165285C0.108025 0.158422 0.112048 0.154418 0.116644 0.147555C0.121241 0.14298 0.128137 0.136117 0.132159 0.131541C0.136756 0.127538 0.143651 0.120675 0.148248 0.1161C0.155143 0.111524 0.159165 0.107521 0.16606 0.102945C0.170657 0.0983701 0.177552 0.0937948 0.181575 0.0892194C0.18847 0.0846441 0.195365 0.0806406 0.20226 0.0760653C0.206283 0.0714899 0.213178 0.0669146 0.220073 0.0646269C0.226968 0.0600515 0.233289 0.0560481 0.240184 0.0537604C0.244781 0.0491851 0.251676 0.0468974 0.257997 0.042322C0.264892 0.0400344 0.271787 0.0377467 0.278108 0.0337432C0.285003 0.0314556 0.294197 0.0291679 0.300517 0.0268802C0.307413 0.0245925 0.314308 0.0223049 0.321203 0.0200172C0.327524 0.0177295 0.334419 0.0154418 0.343613 0.0131541C0.349933 0.0114384 0.356829 0.0114384 0.363724 0.00915071C0.370619 0.00686303 0.379238 0.00686303 0.386133 0.00457536C0.393029 0.00457536 0.399349 0.00228768 0.408543 0.00228768C0.415438 0.00228768 0.421759 0 0.430952 0C0.437848 0 0.444168 0 0.451064 0H34.7118C34.7187 0 34.7279 0 34.7342 0C34.7411 0 34.7503 0.00228768 34.7566 0.00228768C34.7635 0.00228768 34.7704 0.00457536 34.779 0.00457536C34.7859 0.00686303 34.7928 0.00686303 34.7991 0.00915071C34.8083 0.0114384 34.8152 0.0114384 34.8221 0.0131541C34.8284 0.0154418 34.8353 0.0177295 34.8445 0.0200172C34.8508 0.0223049 34.8577 0.0245925 34.8646 0.0268802C34.8715 0.0291679 34.8778 0.0314556 34.8847 0.0337432C34.8916 0.0377467 34.8979 0.0400344 34.9048 0.042322C34.9117 0.0468974 34.9186 0.0491851 34.925 0.0537604C34.9319 0.0560481 34.9387 0.0600515 34.9451 0.0646269C34.9497 0.0669146 34.9566 0.0714899 34.9635 0.0760653C34.9698 0.0806406 34.9744 0.0846441 34.9813 0.0892194C34.9882 0.0937948 34.9922 0.0983701 34.9991 0.102945C35.0037 0.107521 35.0106 0.111524 35.0152 0.1161C35.0215 0.120675 35.0261 0.127538 35.033 0.131541C35.0376 0.136117 35.0416 0.14298 35.0462 0.147555C35.0531 0.154418 35.0577 0.158422 35.0623 0.165285C35.0663 0.16986 35.0709 0.176723 35.0755 0.180727C35.0801 0.18759 35.0847 0.194453 35.0887 0.201316C35.091 0.205319 35.0956 0.212182 35.1002 0.219045C35.1048 0.225908 35.1071 0.232199 35.1111 0.239062C35.1134 0.243638 35.118 0.250501 35.1203 0.256792C35.1249 0.263655 35.1272 0.270518 35.1295 0.276809C35.1318 0.283672 35.1358 0.292823 35.1381 0.299114C35.1404 0.305977 35.1427 0.31284 35.145 0.319703C35.1473 0.325994 35.1496 0.332857 35.1519 0.342008C35.1519 0.348299 35.1542 0.355162 35.1565 0.362025C35.1565 0.368888 35.1588 0.377467 35.1588 0.38433C35.1605 0.391193 35.1605 0.397484 35.1628 0.406635C35.1628 0.413498 35.1628 0.419789 35.1628 0.42894C35.1628 0.435803 35.1651 0.442094 35.1651 0.448957V34.5496C35.1651 34.5565 35.1628 34.5657 35.1628 34.572C35.1628 34.5788 35.1628 34.588 35.1628 34.5943C35.1605 34.6011 35.1605 34.608 35.1588 34.6166C35.1588 34.6234 35.1565 34.6303 35.1565 34.6366C35.1542 34.6457 35.1519 34.6526 35.1519 34.6595C35.1496 34.6657 35.1473 34.6726 35.145 34.6818C35.1427 34.6881 35.1404 34.6949 35.1381 34.7018C35.1358 34.7086 35.1318 34.7149 35.1295 34.7218C35.1272 34.7287 35.1249 34.735 35.1203 34.7418C35.118 34.7487 35.1134 34.7555 35.1111 34.7618C35.1071 34.7687 35.1048 34.7756 35.1002 34.7818C35.0956 34.7864 35.091 34.7933 35.0887 34.8002C35.0847 34.8064 35.0801 34.811 35.0755 34.8179C35.0709 34.8247 35.0663 34.8287 35.0623 34.8356C35.0577 34.8402 35.0531 34.847 35.0462 34.8516C35.0416 34.8579 35.0376 34.8625 35.033 34.8694C35.0261 34.8739 35.0215 34.8779 35.0152 34.8825C35.0106 34.8894 35.0037 34.8939 34.9991 34.8985C34.9922 34.9025 34.9882 34.9071 34.9813 34.9117C34.9744 34.9162 34.9698 34.9208 34.9635 34.9248C34.9566 34.9271 34.9497 34.9317 34.9451 34.9363C34.9387 34.9408 34.9319 34.9431 34.925 34.9471C34.9186 34.9494 34.9117 34.954 34.9048 34.9563C34.8979 34.9609 34.8916 34.9632 34.8847 34.9654C34.8778 34.9677 34.8715 34.9717 34.8646 34.974C34.8577 34.9763 34.8508 34.9786 34.8445 34.9809C34.8353 34.9832 34.8284 34.9855 34.8221 34.9877C34.8152 34.9877 34.8083 34.99 34.7991 34.9923C34.7928 34.9923 34.7859 34.9946 34.779 34.9946C34.7704 34.9963 34.7635 34.9963 34.7566 34.9986C34.7503 34.9986 34.7411 34.9986 34.7342 34.9986C34.7279 34.9986 34.7187 35.0009 34.7118 35.0009H0.451064C0.444168 35.0009 0.437848 34.9986 0.430952 34.9986C0.421759 34.9986 0.415438 34.9986 0.408543 34.9986C0.399349 34.9963 0.393029 34.9963 0.386133 34.9946C0.379238 34.9946 0.370619 34.9923 0.363724 34.9923C0.356829 34.99 0.349933 34.9877 0.343613 34.9877C0.334419 34.9855 0.327524 34.9832 0.321203 34.9809C0.314308 34.9786 0.307413 34.9763 0.300517 34.974C0.294197 34.9717 0.285003 34.9677 0.278108 34.9654C0.271787 34.9632 0.264892 34.9609 0.257997 34.9563C0.251676 34.954 0.244781 34.9494 0.240184 34.9471C0.233289 34.9431 0.226968 34.9408 0.220073 34.9363C0.213178 34.9317 0.206283 34.9271 0.20226 34.9248C0.195365 34.9208 0.18847 34.9162 0.181575 34.9117C0.177552 34.9071 0.170657 34.9025 0.16606 34.8985C0.159165 34.8939 0.155143 34.8894 0.148248 34.8825C0.143651 34.8779 0.136756 34.8739 0.132159 34.8694C0.128137 34.8625 0.121241 34.8579 0.116644 34.8516C0.112048 34.847 0.108025 34.8402 0.103429 34.8356C0.0988318 34.8287 0.0942349 34.8247 0.0896381 34.8179C0.0850413 34.811 0.0810191 34.8064 0.0764222 34.8002C0.0718254 34.7933 0.0672286 34.7864 0.0649302 34.7818C0.0603333 34.7756 0.0563111 34.7687 0.0540127 34.7618C0.0494159 34.7555 0.0471175 34.7487 0.0425206 34.7418C0.0402222 34.735 0.0379238 34.7287 0.0339016 34.7218C0.0316032 34.7149 0.0293048 34.7086 0.0270063 34.7018C0.0247079 34.6949 0.0224095 34.6881 0.0201111 34.6818C0.0178127 34.6726 0.0155143 34.6657 0.0132159 34.6595C0.0114921 34.6526 0.0114921 34.6457 0.00919365 34.6366C0.00689524 34.6303 0.00689524 34.6234 0.00459683 34.6166C0.00459683 34.608 0.00229841 34.6011 0.00229841 34.5943C0.00229841 34.588 0 34.5788 0 34.572C0 34.5657 0 34.5565 0 34.5496V0.448957C0 0.442094 0 0.435803 0 0.42894ZM34.2607 34.1007V0.900201H0.904425V34.1007H34.2607Z" fill="#CB2C30"/>
<path d="M41.7461 0H42.3609V35.0009H41.7461V0Z" fill="#F8F8F8"/>
</g>
<defs>
<clipPath id="clip0_212_22">
<rect width="181" height="35" fill="white"/>
</clipPath>
</defs>
</svg>
