<svg width="216" height="108" viewBox="0 0 216 108" fill="none" xmlns="http://www.w3.org/2000/svg"><g clip-path="url(#clip0_208_11857)"><path d="M107.844 94.6141C114.833 94.6141 120.496 100.262 120.496 107.224H169.93C169.93 73.0482 142.135 45.3477 107.844 45.3477C73.5565 45.3477 45.7576 73.0482 45.7576 107.224H95.1957C95.1957 100.262 100.863 94.6141 107.848 94.6141H107.844ZM142.512 65.4762C142.641 65.3878 142.765 65.2993 142.894 65.2153C153.252 73.8089 160.379 86.1355 162.199 100.125C159.576 101.302 156.785 101.872 154.015 101.872C147.683 101.872 141.447 98.891 137.546 93.3226C131.205 84.269 133.424 71.8009 142.512 65.4807V65.4762ZM80.8524 88.5238C77.5728 96.0648 70.1882 100.572 62.4308 100.572C59.768 100.572 57.0609 100.041 54.4648 98.9176C54.2118 98.807 53.9588 98.692 53.7103 98.5726C55.9293 84.6848 63.3938 72.544 74.0181 64.229C81.629 69.5718 84.7045 79.6737 80.8569 88.5194L80.8524 88.5238ZM87.8687 56.6084C87.8598 56.5199 87.851 56.4359 87.8465 56.3474C94.0418 53.9237 100.787 52.5924 107.844 52.5924C114.904 52.5924 121.65 53.9237 127.845 56.343C127.077 65.8256 119.582 73.6851 109.747 74.6183C109.1 74.6802 108.456 74.7112 107.821 74.7112C97.5966 74.7112 88.8584 66.9579 87.8687 56.6084Z" fill="#1F1F1F"></path><path d="M38.9144 106.861C38.9144 68.9216 69.7755 38.165 107.844 38.165C145.912 38.165 176.773 68.9216 176.773 106.861C176.773 106.98 176.773 107.1 176.768 107.224H215.063C215.063 107.104 215.067 106.985 215.067 106.861C215.067 47.8422 167.058 0 107.844 0C48.629 0 0.619934 47.8422 0.619934 106.861C0.619934 106.98 0.619934 107.1 0.624372 107.224H38.9189C38.9189 107.104 38.9144 106.985 38.9144 106.861Z" fill="#1F1F1F"></path><path d="M35.049 62.0131L35.2044 55.5115C35.2354 54.5296 35.0269 53.9856 34.6363 53.6893C34.197 53.362 33.6245 53.4549 33.1851 54.0343C32.7458 54.6181 32.7014 55.4275 32.9677 56.9534L29.3597 57.7583C28.7916 55.4805 28.907 53.6981 30.5135 51.5707C32.2754 49.2443 34.9425 48.6207 36.8863 50.0802L36.9174 50.1023C38.4795 51.2744 38.697 52.7428 38.5638 54.5561L38.3553 57.2541L41.3597 53.2824L44.0313 55.2903L37.5343 63.8751L35.0535 62.0087L35.049 62.0131Z" fill="white"></path><path d="M48.2559 47.8997L43.8269 52.1678L41.2441 50.5004L40.4053 40.6683L43.8225 37.3777L49.148 42.8665L50.253 41.805L52.3477 43.9678L51.2426 45.0293L52.7782 46.6171L49.7959 49.4919L48.2604 47.9085L48.2559 47.8997ZM46.1968 45.7767L43.8314 43.3397L44.2352 47.6653L46.1923 45.7767H46.1968Z" fill="white"></path><path d="M53.9324 43.1894L54.3007 39.6024C55.7031 39.6953 56.8348 39.5316 57.6913 38.939C58.5301 38.3552 58.7076 37.59 58.3126 37.0194L58.2904 36.9885C57.8599 36.3737 57.0966 36.3295 56.3599 36.8425C55.7164 37.2892 55.4368 37.8819 55.2149 38.6161L52.3703 39.0363L48.8688 33.3838L56.4442 28.125L58.3792 30.8893L53.4132 34.3348L54.2874 35.7457C54.6025 35.0159 55.0596 34.3657 55.8851 33.7907C57.6247 32.5833 60.1676 32.4595 61.7031 34.6576L61.7253 34.6886C63.4162 37.1123 62.3821 39.8722 59.715 41.7254C57.6735 43.1407 55.8407 43.4149 53.9368 43.1805L53.9324 43.1894Z" fill="white"></path><path d="M65.3862 21.3315L68.3108 19.8676L68.688 38.5675L65.7634 40.0314L65.3862 21.3315Z" fill="white"></path><path d="M74.737 30.708L76.3169 27.4307C77.5019 27.9747 78.6158 28.1251 79.6187 27.7889C80.5196 27.4882 80.8702 26.9265 80.6794 26.3603L80.6661 26.3249C80.4664 25.7367 79.8184 25.5288 78.7445 25.8915L77.027 26.4665L75.8865 24.8477L77.848 21.849L73.3391 23.3528L72.2829 20.2081L81.6113 17.0944L82.5477 19.8764L80.5107 22.8264C82.4945 22.7026 84.0255 23.3616 84.6646 25.2635L84.6779 25.2988C85.5566 27.9083 83.7548 30.1242 81.0655 31.022C78.5669 31.8535 76.5255 31.6324 74.7326 30.7124L74.737 30.708Z" fill="white"></path><path d="M87.0433 26.922L88.9072 23.8304C90.1365 24.5071 91.2327 24.8388 92.2578 24.6619C93.2652 24.4894 93.7534 23.8702 93.638 23.1891V23.1537C93.5049 22.4195 92.8303 22.0524 91.9472 22.2028C91.1705 22.3355 90.669 22.7513 90.1542 23.3218L87.3983 22.4991L86.635 15.9002L95.7327 14.3478L96.3052 17.6694L90.3406 18.6866L90.5315 20.3364C91.1261 19.81 91.8185 19.4164 92.8125 19.2439C94.9028 18.8857 97.2593 19.8543 97.712 22.4947V22.5301C98.2179 25.4404 96.1054 27.5014 92.8969 28.0454C90.4471 28.4612 88.6676 27.9349 87.0477 26.9176L87.0433 26.922Z" fill="white"></path><path d="M107.95 13.618L114.19 14.0382C116.453 14.1886 117.856 14.852 118.69 15.8029C119.404 16.6167 119.742 17.5898 119.653 18.8989V18.9343C119.524 20.7875 118.472 22.0126 116.87 22.6584L119.551 27.183L114.678 26.8557L112.517 23.0564L111.603 22.9945L111.358 26.6301L107.089 26.3426L107.95 13.6136V13.618ZM113.653 20.0843C114.674 20.155 115.326 19.7393 115.379 18.9564V18.921C115.437 18.1028 114.824 17.6605 113.839 17.5942L111.98 17.4703L111.811 19.9604L113.653 20.0843Z" fill="white"></path><path d="M125.311 19.1953L123.177 19.2085L123.079 15.9666L127.033 15.741L130.197 16.4089L127.526 28.9787L123.412 28.1118L125.307 19.1997L125.311 19.1953Z" fill="white"></path><path d="M138.541 26.7805C137.378 27.3113 136.331 27.2449 135.47 26.9353C133.424 26.2011 132.212 24.118 133.029 21.8579L133.042 21.8225C134.076 18.9609 136.89 18.1117 139.677 19.1113C141.55 19.7835 142.482 20.7566 143.067 21.995C143.631 23.1847 143.693 24.8345 142.948 26.8911L142.934 26.9265C141.51 30.8673 138.439 32.8089 134.671 31.4555C132.829 30.7965 131.613 29.7571 130.726 28.4479L133.397 26.4842C133.97 27.3688 134.702 27.9791 135.598 28.302C137.267 28.8991 138.124 27.6607 138.536 26.7805H138.541ZM139.584 23.9985L139.597 23.9632C139.881 23.1759 139.566 22.3267 138.776 22.0436C137.986 21.7606 137.241 22.2073 136.956 22.999L136.943 23.0343C136.664 23.8039 137.005 24.5868 137.795 24.8698C138.585 25.1529 139.317 24.7372 139.584 24.003V23.9985Z" fill="white"></path><path d="M157.086 36.4002C155.83 36.6435 154.832 36.3339 154.068 35.8341C152.253 34.6399 151.565 32.3356 152.897 30.3276L152.919 30.2967C154.601 27.7579 157.534 27.5899 160.006 29.2175C161.671 30.3099 162.345 31.4732 162.62 32.8133C162.886 34.1003 162.558 35.7191 161.351 37.5458L161.329 37.5767C159.012 41.0752 155.573 42.2384 152.231 40.0403C150.598 38.9655 149.657 37.674 149.102 36.1968L152.165 34.9142C152.515 35.9093 153.079 36.6745 153.873 37.1964C155.355 38.1694 156.478 37.1654 157.091 36.4091L157.086 36.4002ZM158.759 33.9411L158.777 33.9102C159.239 33.2113 159.136 32.3135 158.431 31.8491C157.725 31.3847 156.9 31.6501 156.434 32.3489L156.412 32.3798C155.959 33.0654 156.105 33.9013 156.807 34.3657C157.508 34.8257 158.32 34.5957 158.75 33.9411H158.759Z" fill="#FFDD00"></path><path d="M160.055 42.5746L163.694 42.3357C163.801 43.6316 164.214 44.671 165.004 45.3787C165.709 46.0156 166.371 46.0465 166.774 45.5998L166.801 45.5733C167.218 45.1133 167.081 44.4499 166.237 43.6936L164.893 42.4861L165.745 40.6993L169.331 40.9293L165.802 37.7536L168.03 35.2901L175.331 41.8581L173.36 44.0341L169.783 43.7113C170.866 45.3698 171.039 47.0284 169.695 48.5145L169.668 48.541C167.817 50.5844 164.999 50.1067 162.896 48.2137C160.943 46.4534 160.131 44.5737 160.055 42.5657V42.5746Z" fill="#FFDD00"></path><path d="M174.501 53.3089L177.954 44.4145L180.94 48.1474L179.019 52.4685L183.687 51.5795L186.639 55.2682L177.208 56.6083L173.618 59.4611L170.951 56.1262L174.497 53.3089H174.501Z" fill="#FFDD00"></path></g><defs><clipPath id="clip0_208_11857"><rect width="214.447" height="107.224" fill="white" transform="translate(0.619934)"></rect></clipPath></defs></svg>