<svg xmlns="http://www.w3.org/2000/svg" width="216" height="108" fill="none" viewBox="0 0 216 108"><path fill="#1F1F1F" d="M107.844 94.614c6.989 0 12.652 5.648 12.652 12.61h49.434c0-34.176-27.795-61.876-62.086-61.876-34.287 0-62.086 27.7-62.086 61.876h49.438c0-6.962 5.667-12.61 12.652-12.61h-.004Zm34.668-29.138c.129-.088.253-.177.382-.26 10.358 8.593 17.485 20.92 19.305 34.909a19.99 19.99 0 0 1-8.184 1.747c-6.332 0-12.568-2.981-16.469-8.55-6.341-9.053-4.122-21.521 4.966-27.841v-.005Zm-61.66 23.048c-3.28 7.54-10.664 12.048-18.421 12.048a20.02 20.02 0 0 1-8.72-2c2.218-13.887 9.683-26.028 20.307-34.343 7.611 5.343 10.686 15.445 6.839 24.29l-.005.005Zm7.017-31.916a3.797 3.797 0 0 1-.022-.26 54.772 54.772 0 0 1 19.997-3.756c7.06 0 13.806 1.332 20.001 3.751-.768 9.483-8.263 17.342-18.098 18.275-.647.062-1.291.093-1.926.093-10.224 0-18.963-7.753-19.952-18.103Z"></path><path fill="#1F1F1F" d="M38.914 106.861c0-37.94 30.861-68.696 68.93-68.696 38.068 0 68.929 30.757 68.929 68.696 0 .119 0 .239-.005.363h38.295c0-.12.004-.239.004-.363C215.067 47.842 167.058 0 107.844 0 48.629 0 .62 47.842.62 106.861c0 .119 0 .239.004.363H38.92c0-.12-.005-.239-.005-.363Z"></path><path fill="#fff" d="m35.049 62.013.155-6.502c.031-.981-.177-1.525-.568-1.822-.439-.327-1.012-.234-1.45.345-.44.584-.485 1.394-.218 2.92l-3.608.804c-.568-2.278-.453-4.06 1.154-6.187 1.761-2.327 4.429-2.95 6.372-1.49l.031.021c1.563 1.172 1.78 2.64 1.647 4.454l-.209 2.698 3.005-3.972 2.671 2.008-6.497 8.585-2.48-1.866-.005.004ZM48.256 47.9l-4.43 4.268-2.582-1.668-.839-9.832 3.417-3.29 5.326 5.489 1.105-1.062 2.095 2.163-1.105 1.061 1.535 1.588-2.982 2.875-1.536-1.584-.004-.008Zm-2.06-2.123-2.365-2.437.404 4.325 1.957-1.888h.005Zm7.736-2.587.369-3.588c1.402.093 2.534-.07 3.39-.663.84-.584 1.017-1.349.622-1.92l-.023-.03c-.43-.615-1.193-.66-1.93-.146-.644.446-.923 1.039-1.145 1.773l-2.845.42-3.501-5.652 7.575-5.259 1.935 2.764-4.966 3.446.874 1.41c.316-.73.773-1.38 1.598-1.954 1.74-1.208 4.283-1.331 5.818.867l.022.03c1.691 2.424.657 5.184-2.01 7.037-2.042 1.416-3.874 1.69-5.778 1.456l-.005.008Zm11.454-21.859 2.925-1.463.377 18.7-2.925 1.463-.377-18.7Zm9.351 9.377 1.58-3.277c1.185.544 2.299.694 3.302.358.9-.3 1.251-.863 1.06-1.429l-.013-.035c-.2-.588-.848-.796-1.921-.433l-1.718.575-1.14-1.62 1.961-2.998-4.509 1.504-1.056-3.145 9.328-3.114.937 2.782-2.037 2.95c1.984-.123 3.514.536 4.154 2.438l.013.035c.879 2.61-.923 4.825-3.612 5.723-2.5.832-4.54.61-6.333-.31l.004-.004Zm12.306-3.786 1.864-3.091c1.23.676 2.326 1.008 3.35.831 1.008-.172 1.496-.792 1.381-1.473v-.035c-.133-.734-.808-1.102-1.69-.951-.777.133-1.279.548-1.794 1.119l-2.756-.823-.763-6.599 9.098-1.552.572 3.321-5.964 1.018.19 1.65a4.414 4.414 0 0 1 2.281-1.093c2.09-.358 4.447.61 4.9 3.25v.036c.506 2.91-1.607 4.971-4.815 5.515-2.45.416-4.23-.11-5.85-1.127l-.004.004Z"></path><path fill="#FD0" d="m107.95 13.618 6.24.42c2.263.15 3.666.814 4.5 1.765.714.814 1.052 1.787.963 3.096v.035c-.129 1.854-1.181 3.079-2.783 3.724l2.681 4.525-4.873-.327-2.161-3.8-.914-.062-.245 3.636-4.269-.287.861-12.73v.005Zm5.703 6.466c1.021.071 1.673-.345 1.726-1.128v-.035c.058-.818-.555-1.26-1.54-1.327l-1.859-.124-.169 2.49 1.842.124Zm11.658-.889-2.134.014-.098-3.242 3.954-.226 3.164.668-2.671 12.57-4.114-.867 1.895-8.912.004-.005Zm13.23 7.585c-1.163.531-2.21.465-3.071.155-2.046-.734-3.258-2.817-2.441-5.077l.013-.035c1.034-2.862 3.848-3.711 6.635-2.712 1.873.672 2.805 1.646 3.39 2.884.564 1.19.626 2.84-.119 4.896l-.014.036c-1.424 3.94-4.495 5.882-8.263 4.529-1.842-.66-3.058-1.699-3.945-3.008l2.671-1.964c.573.885 1.305 1.495 2.201 1.818 1.669.597 2.526-.641 2.938-1.521h.005Zm1.043-2.782.013-.035c.284-.787-.031-1.636-.821-1.92-.79-.282-1.535.164-1.82.956l-.013.035c-.279.77.062 1.553.852 1.836.79.283 1.522-.133 1.789-.867v-.005Z"></path><path fill="#fff" d="M157.086 36.4c-1.256.244-2.254-.066-3.018-.566-1.815-1.194-2.503-3.498-1.171-5.506l.022-.031c1.682-2.54 4.615-2.707 7.087-1.08 1.665 1.093 2.339 2.256 2.614 3.596.266 1.287-.062 2.906-1.269 4.733l-.022.03c-2.317 3.5-5.756 4.662-9.098 2.464-1.633-1.075-2.574-2.366-3.129-3.843l3.063-1.283c.35.995.914 1.76 1.708 2.282 1.482.973 2.605-.03 3.218-.787l-.005-.009Zm1.673-2.459.018-.03c.462-.7.359-1.598-.346-2.062-.706-.464-1.531-.199-1.997.5l-.022.03c-.453.686-.307 1.522.395 1.987.701.46 1.513.23 1.943-.425h.009Zm1.296 8.634 3.639-.24c.107 1.297.52 2.336 1.31 3.044.705.637 1.367.668 1.77.22l.027-.026c.417-.46.28-1.123-.564-1.88l-1.344-1.207.852-1.787 3.586.23-3.529-3.175 2.228-2.464 7.301 6.568-1.971 2.176-3.577-.323c1.083 1.659 1.256 3.317-.088 4.803l-.027.027c-1.851 2.043-4.669 1.566-6.772-.327-1.953-1.76-2.765-3.64-2.841-5.648v.009Zm14.446 10.734 3.453-8.895 2.986 3.733-1.921 4.322 4.668-.89 2.952 3.69-9.431 1.34-3.59 2.852-2.667-3.335 3.546-2.817h.004Z"></path></svg>